<svg width="12" height="11" viewBox="0 0 12 11" fill="none" xmlns="http://www.w3.org/2000/svg">
    <path d="M9.21558 6.84271C9.06565 6.98801 8.99674 7.19816 9.03089 7.40425L9.54553 10.2525C9.58895 10.4939 9.48709 10.7382 9.28505 10.8777C9.08706 11.0224 8.82363 11.0398 8.6077 10.924L6.04374 9.58673C5.95459 9.53926 5.85559 9.51378 5.75429 9.51088H5.5974C5.54299 9.51899 5.48972 9.53637 5.44109 9.563L2.87653 10.9066C2.74974 10.9703 2.60616 10.9929 2.46549 10.9703C2.12277 10.9055 1.8941 10.579 1.95025 10.2345L2.46549 7.3863C2.49964 7.17847 2.43077 6.96717 2.28083 6.81954L0.190381 4.79336C0.0155503 4.62374 -0.0452246 4.36902 0.0346648 4.13919C0.112239 3.90995 0.310212 3.74264 0.549301 3.70501L3.4265 3.28761C3.64532 3.26504 3.83749 3.1319 3.9359 2.93507L5.20371 0.335759C5.23382 0.277868 5.27261 0.224615 5.3195 0.17946L5.37162 0.138932C5.39883 0.108829 5.4301 0.0839333 5.46483 0.0636715L5.5279 0.0405279L5.62634 0H5.87004C6.08771 0.0225774 6.27933 0.152835 6.37948 0.347349L7.66408 2.93507C7.7567 3.12437 7.93675 3.25577 8.14458 3.28761L11.0218 3.70501C11.2649 3.73975 11.4681 3.90763 11.5486 4.13919C11.6244 4.37134 11.559 4.62606 11.3807 4.79336L9.21558 6.84271Z" fill="#FFAB07"/>
</svg>
