<svg width="24" height="24" viewBox="0 0 24 24" fill="none" xmlns="http://www.w3.org/2000/svg">
    <path d="M13.8299 19C13.6805 19.0005 13.5329 18.9676 13.3979 18.9035C13.263 18.8395 13.144 18.7461 13.0499 18.63L8.21992 12.63C8.07284 12.4511 7.99243 12.2267 7.99243 11.995C7.99243 11.7634 8.07284 11.539 8.21992 11.36L13.2199 5.36003C13.3897 5.15581 13.6336 5.02739 13.898 5.00301C14.1624 4.97863 14.4257 5.06029 14.6299 5.23003C14.8341 5.39977 14.9626 5.64368 14.9869 5.90811C15.0113 6.17253 14.9297 6.43581 14.7599 6.64003L10.2899 12L14.6099 17.36C14.7322 17.5068 14.8099 17.6856 14.8338 17.8751C14.8576 18.0647 14.8267 18.2571 14.7447 18.4296C14.6626 18.6021 14.5328 18.7475 14.3707 18.8486C14.2086 18.9497 14.021 19.0023 13.8299 19Z" fill="#2E3E5C"/>
</svg>
